<svg width="258" height="262" viewBox="0 0 258 262" fill="none" xmlns="http://www.w3.org/2000/svg">
<g clip-path="url(#clip0_2692_7034)">
<mask id="mask0_2692_7034" style="mask-type:alpha" maskUnits="userSpaceOnUse" x="-61" y="-23" width="319" height="285">
<path fill-rule="evenodd" clip-rule="evenodd" d="M113.987 261.694C92.8441 264.522 74.8355 246.915 53.7878 243.447C18.5626 237.644 -27.3473 261.141 -51.1062 234.496C-72.7852 210.182 -54.2469 168.062 -39.1835 139.179C-26.271 114.42 2.56742 104.185 25.3073 87.9793C39.4475 77.9022 57.8785 74.8876 69.3366 61.8414C88.837 39.6382 88.0499 1.16774 113.987 -12.9918C139.534 -26.9379 176.475 -26.8376 199.738 -9.34605C223.398 8.44408 217.898 45.4332 228.465 73.085C237.156 95.8265 263.008 115.72 256.496 139.179C249.56 164.164 215.339 168.844 196.84 187.014C184.27 199.361 178.645 216.703 165.557 228.5C150.109 242.424 134.601 258.937 113.987 261.694Z" fill="#C4C4C4"/>
</mask>
<g mask="url(#mask0_2692_7034)">
<path fill-rule="evenodd" clip-rule="evenodd" d="M94.4307 242.158C73.2846 244.985 55.2735 227.383 34.2229 223.916C-1.00704 218.114 -46.9232 241.606 -70.6853 214.966C-92.3673 190.659 -73.8265 148.548 -58.761 119.673C-45.8467 94.92 -17.0044 84.6874 5.73855 68.4857C19.8807 58.4111 38.3142 55.3972 49.7739 42.3542C69.2769 20.1565 68.4897 -18.3046 94.4307 -32.4606C119.981 -46.4033 156.927 -46.3031 180.193 -28.8158C203.856 -11.03 198.356 25.95 208.924 53.595C217.616 76.331 243.471 96.2199 236.959 119.673C230.022 144.652 195.797 149.33 177.295 167.496C164.723 179.84 159.097 197.178 146.007 208.972C130.557 222.893 115.047 239.402 94.4307 242.158Z" stroke="white" stroke-width="5.36256"/>
<path fill-rule="evenodd" clip-rule="evenodd" d="M71.7707 198.237C53.3624 200.697 37.6832 185.375 19.3581 182.357C-11.3106 177.307 -51.2819 197.756 -71.9675 174.567C-90.8423 153.408 -74.7019 116.752 -61.587 91.6161C-50.3448 70.0695 -25.2367 61.1623 -5.43834 47.0591C6.87279 38.2893 22.9196 35.6659 32.8956 24.3122C49.8736 4.98964 49.1883 -28.4898 71.7707 -40.8123C94.0127 -52.9491 126.176 -52.8619 146.429 -37.6396C167.029 -22.1575 162.24 10.0327 171.44 34.0971C179.007 53.8882 201.515 71.201 195.845 91.6161C189.807 113.36 160.013 117.432 143.906 133.245C132.962 143.99 128.064 159.083 116.67 169.349C103.22 181.467 89.7181 195.837 71.7707 198.237Z" stroke="white" stroke-width="5.36256"/>
<path fill-rule="evenodd" clip-rule="evenodd" d="M41.7527 160.818C25.3978 163.01 11.4676 149.364 -4.81344 146.677C-32.0611 142.179 -67.5738 160.39 -85.952 139.738C-102.721 120.894 -88.3814 88.2488 -76.7295 65.8632C-66.7412 46.6741 -44.4339 38.7413 -26.8439 26.1812C-15.9061 18.3709 -1.64917 16.0345 7.21404 5.92302C22.2982 -11.2855 21.6893 -41.102 41.7527 -52.0763C61.5137 -62.8852 90.089 -62.8075 108.084 -49.2507C126.385 -35.4625 122.131 -6.79414 130.305 14.6374C137.027 32.2631 157.024 47.6818 151.987 65.8632C146.622 85.2283 120.152 88.8549 105.842 102.938C96.1182 112.507 91.7671 125.948 81.6433 135.091C69.6937 145.883 57.6981 158.682 41.7527 160.818Z" stroke="white" stroke-width="5.36256"/>
</g>
</g>
<defs>
<clipPath id="clip0_2692_7034">
<rect width="258" height="262" fill="white"/>
</clipPath>
</defs>
</svg>
