<svg width="87" height="90" viewBox="0 0 87 90" fill="none" xmlns="http://www.w3.org/2000/svg">
<path fill-rule="evenodd" clip-rule="evenodd" d="M40.7844 23.0764C40.4885 21.9877 40.156 20.9298 39.778 19.8927C39.2116 18.3369 38.4379 16.8628 37.7909 15.3442C37.517 14.6997 36.8285 13.0075 36.6879 12.7833C35.4515 10.8345 33.6284 11.2901 33.1119 11.4596C32.859 11.535 30.2976 12.3865 31.0184 15.3303C31.8976 18.9306 33.2254 22.3515 34.9565 25.5038C35.7019 28.5188 36.0641 31.6968 36.0142 34.7484C35.8133 46.8866 27.1443 52.0565 17.2278 56.5216C15.6986 57.1996 14.9874 58.9732 15.6045 60.5194C16.2267 62.077 17.9647 62.872 19.5393 62.3107C25.3051 60.2975 37.1404 60.2059 42.6523 63.252C43.8057 63.89 45.2912 66.0267 46.8886 68.0567C49.1101 70.8726 51.46 73.5878 53.081 74.4368C53.3274 74.5709 56.1399 75.8063 56.833 75.8583C58.4938 75.973 59.3612 75.0634 59.7859 74.3994C60.2105 73.7354 60.5418 72.6602 60.2329 71.2747C59.9104 69.8266 58.4234 67.2362 58.2006 66.637C57.393 64.4628 55.912 60.149 55.135 56.2124C54.7172 54.0924 54.3982 52.1058 54.8099 50.8559C56.3343 46.2291 61.3781 44.4803 65.6864 43.1395C66.1791 42.981 66.677 42.834 67.1686 42.676C69.0475 42.4011 70.9709 41.9541 72.9262 41.3135C75.8804 40.3497 75.1525 37.5606 75.0989 37.3789C74.9783 36.9802 74.2822 34.9612 71.8138 35.1639C71.5467 35.1908 69.6736 35.6006 68.9506 35.7552C67.9438 35.972 66.9478 36.2389 65.9535 36.5186C55.0144 37.9589 45.964 32.0025 40.7844 23.0764ZM42.261 34.9088C42.0951 44.0435 38.2794 50.1816 32.5366 54.8136L32.5377 54.8131C37.5735 55.0639 42.489 56.0175 45.6752 57.7825C46.8836 58.4502 48.5019 60.1676 50.1686 62.1657C49.5219 59.8897 48.9292 57.4236 48.6325 55.2202C48.2919 52.7067 48.3581 50.46 48.8701 48.9022C49.8603 45.8985 51.7794 43.5952 54.1558 41.7967C49.6979 40.4532 45.6855 38.0644 42.261 34.9088Z" fill="black"/>
</svg>
