<svg width="46" height="45" viewBox="0 0 46 45" fill="none" xmlns="http://www.w3.org/2000/svg">
<path fill-rule="evenodd" clip-rule="evenodd" d="M4.06717 23.4093C5.48468 17.6457 5.39186 12.0953 5.56174 6.24919C5.59475 5.10748 4.69788 4.15828 3.55961 4.1239C2.42064 4.08951 1.47011 4.99053 1.43641 6.13224C1.27547 11.6757 1.40547 16.951 0.0601759 22.4257C-0.212185 23.533 0.465293 24.6541 1.57124 24.9223C2.6765 25.1975 3.7955 24.5166 4.06717 23.4093Z" fill="#12141D"/>
<path fill-rule="evenodd" clip-rule="evenodd" d="M16.11 34.5783C25.7266 25.7885 34.7874 14.4814 41.1204 3.06427C41.6727 2.06699 41.313 0.808303 40.3171 0.258079C39.3212 -0.292144 38.0639 0.0655313 37.5117 1.06281C31.3877 12.1017 22.6247 23.0374 13.3259 31.5315C12.4854 32.3018 12.427 33.6086 13.1952 34.4476C13.9635 35.2867 15.2696 35.3486 16.11 34.5783Z" fill="#12141D"/>
<path fill-rule="evenodd" clip-rule="evenodd" d="M18.5457 44.1799C27.341 45.6311 36.4066 43.1551 44.4041 39.6543C45.4474 39.1935 45.9234 37.9761 45.4674 36.9376C45.0107 35.8922 43.7926 35.4176 42.7493 35.8715C35.4657 39.0628 27.2282 41.4288 19.2176 40.1083C18.0938 39.9226 17.0312 40.686 16.8461 41.807C16.6604 42.9281 17.4225 43.9942 18.5457 44.1799Z" fill="#12141D"/>
</svg>
