<svg width="374" height="484" viewBox="0 0 374 484" fill="none" xmlns="http://www.w3.org/2000/svg">
<g clip-path="url(#clip0_2692_6888)">
<path d="M267.514 205.317C267.457 204.471 266.726 203.832 265.88 203.889C265.034 203.946 264.395 204.677 264.451 205.523L267.514 205.317ZM231.506 284.046L230.719 282.728L231.506 284.046ZM148.747 273.498L150.167 272.914L150.167 272.914L148.747 273.498ZM159.162 240.859L159.831 242.24L159.831 242.24L159.162 240.859ZM187.841 250.102L186.696 251.124L187.841 250.102ZM154.8 333.707L155.525 335.06L155.525 335.06L154.8 333.707ZM77.6066 319.586L76.2174 320.239L77.6066 319.586ZM84.6781 294.825L85.5832 296.064L84.6781 294.825ZM71.5734 390.508L71.1164 389.043L71.5734 390.508ZM3.90994 378.599L3.676 377.082C3.12262 377.167 2.65963 377.547 2.46795 378.073C2.27626 378.6 2.3863 379.188 2.75507 379.61L3.90994 378.599ZM26.5473 376.66C27.385 376.531 27.9593 375.747 27.8301 374.91C27.7009 374.072 26.9171 373.497 26.0794 373.627L26.5473 376.66ZM18.4323 397.522C18.9905 398.16 19.9601 398.224 20.5979 397.666C21.2358 397.108 21.3003 396.138 20.742 395.5L18.4323 397.522ZM265.983 205.42C264.451 205.523 264.451 205.523 264.451 205.522C264.451 205.523 264.451 205.523 264.451 205.523C264.451 205.524 264.452 205.526 264.452 205.529C264.452 205.534 264.453 205.543 264.453 205.555C264.455 205.579 264.457 205.616 264.46 205.666C264.465 205.767 264.473 205.918 264.482 206.119C264.5 206.521 264.521 207.118 264.535 207.889C264.562 209.432 264.559 211.669 264.438 214.428C264.195 219.949 263.477 227.542 261.582 235.831C257.784 252.446 249.316 271.623 230.719 282.728L232.293 285.364C251.921 273.643 260.691 253.507 264.575 236.515C266.521 228.001 267.255 220.218 267.504 214.563C267.629 211.734 267.632 209.433 267.604 207.835C267.589 207.036 267.567 206.412 267.549 205.985C267.539 205.772 267.531 205.608 267.525 205.495C267.521 205.439 267.519 205.396 267.517 205.366C267.516 205.351 267.515 205.34 267.515 205.332C267.515 205.328 267.514 205.324 267.514 205.322C267.514 205.321 267.514 205.319 267.514 205.319C267.514 205.318 267.514 205.317 265.983 205.42ZM230.719 282.728C216.272 291.355 198.589 295.161 183.253 293.618C167.894 292.074 155.225 285.228 150.167 272.914L147.327 274.081C152.981 287.844 166.967 295.066 182.946 296.672C198.95 298.282 217.29 294.322 232.293 285.364L230.719 282.728ZM150.167 272.914C148.66 269.246 147.912 263.03 149.187 256.951C150.454 250.906 153.662 245.227 159.831 242.24L158.493 239.477C151.212 243.003 147.578 249.664 146.183 256.321C144.795 262.943 145.565 269.79 147.327 274.081L150.167 272.914ZM159.831 242.24C165.642 239.426 170.9 240.076 175.444 242.195C180.049 244.341 183.904 247.995 186.696 251.124L188.986 249.081C186.092 245.836 181.905 241.819 176.741 239.412C171.516 236.977 165.278 236.192 158.493 239.477L159.831 242.24ZM186.696 251.124C198.021 263.818 197.74 279.798 190.61 294.911C183.466 310.056 169.523 324.078 154.075 332.354L155.525 335.06C171.492 326.506 185.933 312.022 193.386 296.221C200.855 280.388 201.387 262.98 188.986 249.081L186.696 251.124ZM154.075 332.354C140.813 339.459 125.092 342.779 111.157 340.954C97.2583 339.134 85.2379 332.227 78.9958 318.934L76.2174 320.239C83.0017 334.686 96.0711 342.074 110.759 343.998C125.411 345.916 141.774 342.426 155.525 335.06L154.075 332.354ZM78.9958 318.934C77.0114 314.708 76.5562 310.569 77.5946 306.747C78.6343 302.921 81.2143 299.255 85.5832 296.064L83.7729 293.586C78.9595 297.101 75.89 301.315 74.6326 305.942C73.374 310.574 73.9743 315.462 76.2174 320.239L78.9958 318.934ZM85.5832 296.064C89.682 293.071 93.8035 292.497 97.8576 293.497C101.986 294.515 106.136 297.195 110.087 300.885L112.182 298.642C108.034 294.768 103.431 291.71 98.5929 290.517C93.6806 289.305 88.6232 290.043 83.7729 293.586L85.5832 296.064ZM110.087 300.885C123.572 313.48 122.277 332.7 113.094 350.529C103.925 368.331 87.2001 384.026 71.1164 389.043L72.0305 391.973C89.0863 386.653 106.378 370.272 115.823 351.934C125.254 333.623 127.17 312.639 112.182 298.642L110.087 300.885ZM71.1164 389.043C58.5777 392.954 42.048 390.104 28.418 386.123C21.648 384.145 15.6789 381.915 11.4019 380.179C9.26444 379.311 7.55213 378.567 6.37665 378.042C5.78897 377.78 5.33566 377.571 5.03066 377.43C4.87817 377.359 4.76278 377.305 4.68622 377.269C4.64795 377.25 4.61938 377.237 4.60075 377.228C4.59143 377.224 4.5846 377.22 4.58028 377.218C4.57812 377.217 4.57658 377.216 4.57568 377.216C4.57523 377.216 4.57502 377.216 4.5748 377.216C4.57475 377.216 4.57486 377.216 3.90994 378.599C3.24502 379.982 3.24545 379.982 3.24604 379.983C3.24645 379.983 3.2472 379.983 3.24801 379.983C3.24965 379.984 3.25191 379.985 3.25481 379.987C3.2606 379.989 3.26891 379.993 3.27971 379.999C3.30132 380.009 3.3329 380.024 3.37422 380.043C3.45688 380.083 3.57855 380.14 3.73748 380.214C4.05534 380.361 4.52231 380.575 5.12437 380.845C6.32839 381.383 8.07341 382.14 10.2473 383.023C14.5931 384.787 20.6628 387.055 27.5574 389.069C41.2565 393.071 58.5584 396.176 72.0305 391.973L71.1164 389.043ZM4.14388 380.116L26.5473 376.66L26.0794 373.627L3.676 377.082L4.14388 380.116ZM2.75507 379.61L18.4323 397.522L20.742 395.5L5.06481 377.588L2.75507 379.61Z" fill="white"/>
<path fill-rule="evenodd" clip-rule="evenodd" d="M431.484 364.383C413.603 381.423 384.75 377.189 362.674 388.267C325.729 406.807 298.718 460.066 258.326 451.278C221.47 443.259 210.165 391.186 204.616 353.878C199.859 321.898 219.906 292.681 230.176 262.023C236.562 242.959 251.775 227.59 253.628 207.571C256.782 173.5 229.859 138 244.517 107.082C258.955 76.6301 293.626 51.5796 327.323 52.1302C361.594 52.6901 381.619 91.0818 410.339 109.791C433.958 125.178 471.715 126.217 481.582 152.623C492.092 180.748 463.222 208.423 458.261 238.035C454.89 258.157 461.426 278.23 457.196 298.189C452.203 321.747 448.916 347.77 431.484 364.383Z" fill="#FF6A61"/>
<mask id="mask0_2692_6888" style="mask-type:alpha" maskUnits="userSpaceOnUse" x="203" y="52" width="281" height="401">
<path fill-rule="evenodd" clip-rule="evenodd" d="M431.484 364.383C413.603 381.423 384.75 377.189 362.674 388.267C325.729 406.807 298.718 460.066 258.326 451.278C221.47 443.259 210.165 391.186 204.616 353.878C199.859 321.898 219.906 292.681 230.176 262.023C236.562 242.959 251.775 227.59 253.628 207.571C256.782 173.5 229.859 138 244.517 107.082C258.955 76.6301 293.626 51.5796 327.323 52.1302C361.594 52.6901 381.619 91.0818 410.339 109.791C433.958 125.178 471.715 126.217 481.582 152.623C492.092 180.748 463.222 208.423 458.261 238.035C454.89 258.157 461.426 278.23 457.196 298.189C452.203 321.747 448.916 347.77 431.484 364.383Z" fill="#C4C4C4"/>
</mask>
<g mask="url(#mask0_2692_6888)">
<path fill-rule="evenodd" clip-rule="evenodd" d="M399.866 359.396C381.982 376.437 353.13 372.208 331.052 383.289C294.103 401.834 267.082 455.092 226.691 446.312C189.837 438.301 178.541 386.236 172.999 348.933C168.248 316.957 188.3 287.741 198.576 257.084C204.966 238.021 220.181 222.651 222.038 202.634C225.197 168.566 198.281 133.075 212.945 102.158C227.388 71.7067 262.064 46.6528 295.761 47.1972C330.032 47.7509 350.05 86.1346 378.767 104.837C402.384 120.218 440.14 121.249 450.003 147.65C460.508 175.77 431.633 203.448 426.666 233.058C423.292 253.177 429.823 273.247 425.59 293.205C420.593 316.761 417.302 342.782 399.866 359.396Z" stroke="#F1DFD5" stroke-width="4.30886"/>
<path fill-rule="evenodd" clip-rule="evenodd" d="M348.746 333.678C333.177 348.512 308.061 344.832 288.842 354.478C256.677 370.622 233.154 416.984 197.993 409.342C165.911 402.369 156.08 357.047 151.256 324.576C147.121 296.741 164.577 271.307 173.523 244.621C179.086 228.026 192.332 214.647 193.948 197.221C196.7 167.565 173.27 136.671 186.036 109.758C198.609 83.25 228.796 61.4399 258.129 61.9129C287.963 62.3941 305.388 95.8064 330.385 112.086C350.943 125.474 383.811 126.371 392.396 149.353C401.54 173.831 376.403 197.925 372.079 223.7C369.141 241.214 374.826 258.685 371.14 276.058C366.79 296.563 363.924 319.214 348.746 333.678Z" stroke="#F1DFD5" stroke-width="4.30886"/>
<path fill-rule="evenodd" clip-rule="evenodd" d="M295.156 319.06C281.328 332.245 258.992 328.944 241.912 337.509C213.327 351.842 192.458 393.073 161.186 386.237C132.651 380 123.863 339.66 119.541 310.76C115.836 285.987 131.332 263.373 139.26 239.635C144.189 224.874 155.953 212.981 157.373 197.477C159.79 171.09 138.925 143.575 150.249 119.639C161.402 96.064 188.221 76.6869 214.305 77.1376C240.833 77.596 256.361 107.346 278.605 121.857C296.899 133.792 326.126 134.624 333.783 155.083C341.938 176.874 319.611 198.289 315.793 221.22C313.198 236.802 318.271 252.354 315.011 267.81C311.164 286.052 308.638 306.205 295.156 319.06Z" stroke="#F1DFD5" stroke-width="4.30886"/>
</g>
</g>
<defs>
<clipPath id="clip0_2692_6888">
<rect width="374" height="484" fill="white"/>
</clipPath>
</defs>
</svg>
