<svg width="372" height="400" viewBox="0 0 372 400" fill="none" xmlns="http://www.w3.org/2000/svg">
<g clip-path="url(#clip0_2692_6878)">
<mask id="mask0_2692_6878" style="mask-type:alpha" maskUnits="userSpaceOnUse" x="-113" y="0" width="485" height="542">
<path fill-rule="evenodd" clip-rule="evenodd" d="M371.002 244.044C375.809 279.989 345.877 310.605 339.981 346.388C330.116 406.273 370.063 484.324 324.763 524.716C283.428 561.572 211.82 530.055 162.717 504.446C120.625 482.494 103.224 433.466 75.6734 394.807C58.5416 370.767 53.4166 339.433 31.2369 319.954C-6.51014 286.801 -71.913 288.14 -95.9853 244.044C-119.695 200.613 -119.524 137.809 -89.7873 98.2607C-59.5427 58.0369 3.34164 67.3873 50.3519 49.4227C89.0143 34.6481 122.835 -9.30236 162.716 1.76809C205.194 13.5592 213.149 71.7372 244.04 103.188C265.03 124.558 294.514 134.121 314.569 156.371C338.242 182.634 366.315 208.999 371.002 244.044Z" fill="#C4C4C4"/>
</mask>
<g mask="url(#mask0_2692_6878)">
<path fill-rule="evenodd" clip-rule="evenodd" d="M337.789 277.292C342.595 313.242 312.67 343.862 306.776 379.649C296.913 439.543 336.85 517.604 291.561 558.002C250.237 594.863 178.646 563.342 129.555 537.729C87.4733 515.774 70.077 466.74 42.5329 428.075C25.4052 404.032 20.2815 372.694 -1.89273 353.212C-39.6306 320.055 -105.017 321.393 -129.084 277.292C-152.787 233.855 -152.617 171.043 -122.887 131.489C-92.6501 91.2594 -29.7812 100.611 17.2175 82.644C55.8705 67.8674 89.6831 23.911 129.555 34.9829C172.022 46.7756 179.975 104.962 210.858 136.416C231.843 157.79 261.32 167.354 281.37 189.607C305.037 215.874 333.103 242.242 337.789 277.292Z" stroke="white" stroke-width="5.36256"/>
<path fill-rule="evenodd" clip-rule="evenodd" d="M263.119 315.815C267.303 347.111 241.254 373.767 236.124 404.921C227.538 457.06 262.302 525.014 222.879 560.182C186.907 592.27 124.589 564.83 81.8563 542.534C45.2255 523.421 30.0824 480.736 6.1059 447.077C-8.80332 426.147 -13.2634 398.866 -32.5655 381.906C-65.4154 353.042 -122.333 354.207 -143.282 315.816C-163.916 278.002 -163.768 223.323 -137.888 188.89C-111.568 153.869 -56.8418 162.01 -15.9305 146.369C17.716 133.506 47.1491 95.2405 81.8563 104.879C118.823 115.145 125.746 165.797 152.629 193.18C170.896 211.786 196.555 220.112 214.008 239.484C234.61 262.35 259.041 285.304 263.119 315.815Z" stroke="white" stroke-width="5.36256"/>
<path fill-rule="evenodd" clip-rule="evenodd" d="M199.506 366.848C203.232 394.653 180.032 418.335 175.463 446.014C167.817 492.338 198.778 552.712 163.668 583.956C131.632 612.466 76.1317 588.087 38.0745 568.277C5.45146 551.297 -8.03481 513.372 -29.3881 483.468C-42.6661 464.873 -46.6382 440.635 -63.8285 425.567C-93.0843 399.923 -143.775 400.958 -162.432 366.848C-180.808 333.253 -180.676 284.673 -157.628 254.081C-134.187 222.966 -85.4487 230.199 -49.0135 216.303C-19.0483 204.875 7.16459 170.878 38.0745 179.441C70.9966 188.562 77.1622 233.564 101.104 257.892C117.373 274.423 140.224 281.82 155.768 299.031C174.115 319.346 195.873 339.74 199.506 366.848Z" stroke="white" stroke-width="5.36256"/>
</g>
</g>
<defs>
<clipPath id="clip0_2692_6878">
<rect width="372" height="400" fill="white"/>
</clipPath>
</defs>
</svg>
