<svg width="173" height="98" viewBox="0 0 173 98" fill="none" xmlns="http://www.w3.org/2000/svg">
<path d="M171.92 87.8079C172.631 87.3457 172.832 86.395 172.37 85.6846C171.907 84.9741 170.957 84.7729 170.246 85.2351L171.92 87.8079ZM120.758 91.3933L121.524 90.0635L120.758 91.3933ZM102.398 45.8191L103.599 46.7736L103.599 46.7736L102.398 45.8191ZM122.169 41.7936L121.29 43.0515L121.29 43.0515L122.169 41.7936ZM125.659 59.1925L124.208 58.6914L125.659 59.1925ZM73.1864 66.2328L72.3591 67.5256L73.1864 66.2328ZM58.2622 22.4934L57.0149 21.5991L58.2622 22.4934ZM73.023 19.0129L73.6632 17.6181L73.023 19.0129ZM20.0707 39.7726L21.1265 38.6588L20.0707 39.7726ZM6.74844 1.56743L7.95826 0.623108C7.61373 0.181722 7.05617 -0.0370063 6.50342 0.0523858C5.95068 0.141778 5.49048 0.525102 5.30265 1.05258L6.74844 1.56743ZM13.7529 13.0354C14.2744 13.7036 15.2388 13.8224 15.907 13.3009C16.5752 12.7794 16.694 11.8149 16.1725 11.1468L13.7529 13.0354ZM0.599885 14.2589C0.315544 15.0574 0.732344 15.9352 1.53084 16.2196C2.32933 16.5039 3.20714 16.0871 3.49148 15.2886L0.599885 14.2589ZM171.083 86.5215C170.246 85.2351 170.247 85.2349 170.247 85.2347C170.247 85.2348 170.247 85.2347 170.247 85.2348C170.247 85.2349 170.246 85.2353 170.245 85.236C170.243 85.2374 170.239 85.2399 170.233 85.2434C170.222 85.2504 170.205 85.2616 170.181 85.2768C170.133 85.3072 170.059 85.3536 169.961 85.4144C169.764 85.5362 169.468 85.7159 169.08 85.9416C168.305 86.3932 167.165 87.0283 165.725 87.7523C162.842 89.2016 158.769 90.9986 154.008 92.3933C144.452 95.1932 132.362 96.3085 121.524 90.0635L119.992 92.723C131.871 99.568 144.944 98.2474 154.871 95.339C159.853 93.8795 164.101 92.0041 167.104 90.4948C168.607 89.7393 169.802 89.0735 170.625 88.5939C171.037 88.3541 171.356 88.1606 171.574 88.0257C171.684 87.9582 171.768 87.9053 171.826 87.8685C171.855 87.8501 171.877 87.8357 171.893 87.8256C171.901 87.8205 171.907 87.8165 171.912 87.8135C171.914 87.8121 171.916 87.8109 171.917 87.8099C171.918 87.8095 171.919 87.809 171.919 87.8087C171.92 87.8083 171.92 87.8079 171.083 86.5215ZM121.524 90.0635C113.053 85.1823 106.109 77.2883 102.549 69.0882C98.9803 60.8658 98.9234 52.6604 103.599 46.7736L101.196 44.8645C95.5455 51.978 95.9168 61.517 99.7337 70.3104C103.56 79.126 110.96 87.5189 119.992 92.723L121.524 90.0635ZM103.599 46.7736C104.966 45.0531 107.836 42.9502 111.219 41.8922C114.567 40.8449 118.189 40.884 121.29 43.0515L123.048 40.5358C118.936 37.6609 114.248 37.7287 110.302 38.9627C106.391 40.1861 102.981 42.6171 101.196 44.8645L103.599 46.7736ZM121.29 43.0515C124.224 45.1025 125.326 47.803 125.532 50.5938C125.743 53.4515 125.004 56.3877 124.208 58.6914L127.109 59.6936C127.956 57.2431 128.849 53.841 128.593 50.3682C128.332 46.8287 126.869 43.2068 123.048 40.5358L121.29 43.0515ZM124.208 58.6914C121.045 67.8473 113.031 72.1965 103.377 72.8634C93.6868 73.5327 82.6052 70.4379 74.0136 64.9401L72.3591 67.5256C81.4466 73.3406 93.1748 76.6449 103.588 75.9255C114.037 75.2038 123.419 70.3763 127.109 59.6936L124.208 58.6914ZM74.0136 64.9401C66.6458 60.2255 60.5165 53.1962 57.5053 45.647C54.5073 38.131 54.6228 30.2033 59.5094 23.3876L57.0149 21.5991C51.3851 29.4513 51.3616 38.5294 54.6542 46.7842C57.9337 55.0058 64.5247 62.5123 72.3591 67.5256L74.0136 64.9401ZM59.5094 23.3876C61.0386 21.2548 62.916 19.9324 65.0116 19.4097C67.1116 18.886 69.59 19.126 72.3828 20.4077L73.6632 17.6181C70.37 16.1067 67.1746 15.7068 64.2688 16.4315C61.3587 17.1573 58.8987 18.9717 57.0149 21.5991L59.5094 23.3876ZM72.3828 20.4077C74.9256 21.5748 76.2819 23.377 76.8847 25.5733C77.5078 27.8435 77.3453 30.6274 76.597 33.665L79.5774 34.3991C80.39 31.1001 80.6611 27.7355 79.8447 24.7609C79.008 21.7123 77.0517 19.1732 73.6632 17.6181L72.3828 20.4077ZM76.597 33.665C74.099 43.8062 64.2248 48.5982 52.5326 48.9973C40.87 49.3955 28.1756 45.341 21.1265 38.6588L19.0148 40.8864C26.8029 48.2692 40.3728 52.4837 52.6373 52.065C64.8721 51.6473 76.5876 46.5365 79.5774 34.3991L76.597 33.665ZM21.1265 38.6588C15.6586 33.4754 12.4052 24.3233 10.5384 16.187C9.61544 12.1646 9.04989 8.47707 8.71533 5.79463C8.54818 4.45448 8.43902 3.36791 8.37182 2.6191C8.33823 2.24476 8.31514 1.95502 8.30055 1.76043C8.29325 1.66314 8.28808 1.58965 8.28478 1.54128C8.28313 1.5171 8.28195 1.4992 8.28121 1.48774C8.28084 1.48201 8.28057 1.4779 8.28042 1.47541C8.28034 1.47417 8.28029 1.47334 8.28026 1.47291C8.28025 1.4727 8.28025 1.47269 8.28024 1.47259C8.28024 1.47268 8.28026 1.47288 6.74844 1.56743C5.21663 1.66198 5.21666 1.66238 5.21669 1.66289C5.21671 1.6632 5.21674 1.66381 5.21678 1.66443C5.21686 1.66566 5.21696 1.6673 5.21709 1.66935C5.21735 1.67346 5.21772 1.67921 5.2182 1.68658C5.21916 1.70132 5.22056 1.72255 5.22244 1.75011C5.22619 1.80521 5.23186 1.88561 5.23969 1.98999C5.25534 2.19872 5.27965 2.50341 5.31465 2.89344C5.38464 3.67339 5.49746 4.79539 5.66947 6.17452C6.01322 8.93064 6.59471 12.7246 7.54666 16.8735C9.42959 25.0799 12.8373 35.0304 19.0148 40.8864L21.1265 38.6588ZM5.53863 2.51175L13.7529 13.0354L16.1725 11.1468L7.95826 0.623108L5.53863 2.51175ZM5.30265 1.05258L0.599885 14.2589L3.49148 15.2886L8.19424 2.08228L5.30265 1.05258Z" fill="white"/>
</svg>
