<?xml version="1.0" encoding="UTF-8"?>
<svg xmlns="http://www.w3.org/2000/svg" viewBox="0 0 1500 541.85">
  <defs>
    <style>
      .cls-1 {
        fill: #e9724c;
      }

      .cls-1, .cls-2, .cls-3, .cls-4, .cls-5, .cls-6, .cls-7 {
        stroke-width: 0px;
      }

      .cls-2 {
        fill: #fff7e7;
      }

      .cls-4 {
        fill: #f2f1f1;
      }

      .cls-5 {
        fill: #fdc272;
      }

      .cls-6 {
        fill: #222021;
      }

      .cls-8 {
        fill: none;
        stroke: #231f20;
        stroke-miterlimit: 10;
        stroke-width: 4px;
      }

      .cls-9 {
        font-family: Blacksword, Blacksword;
        font-size: 252.38px;
        letter-spacing: 0em;
      }

      .cls-7 {
        fill: #cf4e28;
      }
    </style>
  </defs>
  <g id="Layer_1" data-name="Layer 1">
    <rect class="cls-7" x="83.32" y="122.64" width="411.14" height="259.3" rx="42.95" ry="42.95" transform="translate(-52.51 77.49) rotate(-14.02)"/>
    <rect class="cls-5" x="168.93" y="79.57" width="411.14" height="259.3" rx="44.78" ry="44.78" transform="translate(30.48 -47.05) rotate(7.49)"/>
    <rect class="cls-1" x="184.12" y="160.63" width="411.14" height="259.3" rx="43.1" ry="43.1" transform="translate(145.77 -129.99) rotate(23.19)"/>
    <g>
      <path class="cls-3" d="m624.62,328.84h40.79c0,15.94.72,25.67,2.16,29.21,1.44,3.53,4.09,5.3,7.95,5.3,3.29,0,5.59-1.13,6.9-3.39,1.31-2.26,1.97-7.09,1.97-14.48v-142.58h44.36v124.96c0,14.13-.49,24.63-1.48,31.48-.99,6.86-2.67,12.51-5.05,16.94-3.78,6.9-9.37,12.12-16.76,15.65s-16.51,5.3-27.36,5.3c-19.31,0-33.11-4.52-41.41-13.56-8.3-9.04-12.45-24.11-12.45-45.22,0-2.63.02-4.6.06-5.92.04-1.31.14-2.54.31-3.7Z"/>
      <path class="cls-3" d="m759.55,202.89h44.86v118.92c0,17.99,1.13,29.13,3.39,33.4,2.26,4.27,6.26,6.41,12.01,6.41s9.86-2.22,12.08-6.65c2.22-4.44,3.33-15.48,3.33-33.15v-118.92h43.99v121.14c0,13.72-.6,23.97-1.79,30.75-1.19,6.78-3.14,12.67-5.85,17.68-4.52,8.55-11.05,14.81-19.59,18.79-8.55,3.98-19.68,5.98-33.4,5.98-12.65,0-22.96-1.87-30.93-5.61-7.97-3.74-14.29-9.71-18.98-17.93-3.37-5.83-5.73-13.31-7.09-22.43-1.36-9.12-2.03-24.52-2.03-46.21v-102.16Z"/>
      <path class="cls-3" d="m903.72,328.34h40.67v5.54c0,10.43,1.23,17.79,3.7,22.06,2.46,4.27,6.61,6.41,12.45,6.41,4.68,0,8.38-1.62,11.09-4.87,2.71-3.24,4.07-7.66,4.07-13.25,0-9.2-6.61-18.03-19.84-26.49-2.14-1.48-3.78-2.59-4.93-3.33-.41-.25-1.11-.7-2.1-1.36-17.83-11.99-28.92-21.03-33.27-27.11-3.12-4.6-5.5-9.77-7.15-15.53-1.64-5.75-2.46-12.03-2.46-18.85,0-16.6,4.81-29.62,14.42-39.07,9.61-9.45,22.84-14.17,39.68-14.17,18.32,0,32.31,4.64,41.96,13.92,9.65,9.28,14.48,22.72,14.48,40.3,0,.74-.04,1.77-.12,3.08-.08,1.32-.12,2.34-.12,3.08h-39.8v-2.34c0-8.3-1.29-14.58-3.88-18.85-2.59-4.27-6.35-6.41-11.28-6.41-4.19,0-7.56,1.5-10.11,4.5-2.55,3-3.82,6.96-3.82,11.89,0,8.05,7.23,16.6,21.69,25.63,2.63,1.73,4.64,3.04,6.04,3.94,1.15.66,2.75,1.69,4.81,3.08,15.53,9.86,25.47,18.16,29.82,24.89,2.71,4.36,4.79,9.3,6.22,14.85,1.44,5.55,2.16,11.56,2.16,18.05,0,18.98-4.93,33.6-14.79,43.87-9.86,10.27-23.95,15.4-42.27,15.4-19.22,0-33.66-4.91-43.32-14.73-9.65-9.82-14.48-24.42-14.48-43.81,0-1.23.02-2.53.06-3.88.04-1.36.19-3.51.43-6.47Z"/>
      <path class="cls-3" d="m1020.19,202.72c3.47,6.2,7.07,13.88,9.96,22.98,1.59,4.99,2.74,9.7,3.57,14.04h30.92v152.93h15.94c.15-.19,1.45-3.07,1.62-3.25.45-1.32,1.76-3.55,2.48-4.83,1.51-3.02,1.88-3.28,3.12-5.72.87-1.72,3.09-5.48,3.96-7.05,2.06-3.71,3.19-5.7,5.45-9.29,1.78-3.48,4.33-7.51,6.48-10.8.48-.97,4.85-7.6,5.43-8.53v-103.45h37.34v-36.85c-42.09-.06-84.18-.11-126.28-.17Z"/>
    </g>
    <text class="cls-9" transform="translate(1134.3 362.99)"><tspan x="0" y="0">pix</tspan></text>
  </g>
  <g id="lense">
    <g>
      <path class="cls-6" d="m349.79,364.66c-51.44-.26-93.59-42.89-93.2-94.27.39-51.36,43.07-93.34,94.49-92.92,51.05.42,93.27,42.9,92.62,94.07-.67,53.25-42.65,92.31-93.91,93.12Zm-1.94-8.51c47.38.83,86.86-36.54,87.39-83.51.54-47.97-36.56-85.33-82.68-86.51-48.98-1.25-85.79,36.65-87.39,82.61-1.65,47.61,37.78,86.85,82.67,87.41Z"/>
      <path class="cls-2" d="m347.85,356.14c-44.89-.57-84.32-39.81-82.67-87.41,1.6-45.96,38.41-83.86,87.39-82.61,46.12,1.18,83.22,38.54,82.68,86.51-.53,46.98-40.02,84.34-87.39,83.51Zm1.95-45.52c21.11.4,39.92-17.35,39.89-39.95-.03-21.78-18.26-40.07-40.01-40.05-21.99.03-39.87,17.88-39.92,39.86-.05,22.72,17.27,40.09,40.03,40.13Zm6.07,20.41c-26.57-10.07-52.5-19.9-79.42-30.1,1.31,2.48,1.97,3.69,2.61,4.92,11.43,22.23,29.22,36.39,53.54,42.35,2.14.52,3.93,1.05,5.81-.75,5.58-5.39,11.3-10.64,17.46-16.41Zm48.76-36.74c-19.92,18.6-39.32,36.72-59.06,55.16,23.84,2.77,48.55-8.45,63.88-26.02.55-.63,1.34-1.58,1.2-2.2-1.89-8.84-3.91-17.64-6.01-26.93Zm11.62,19.58c1.67-3.09,3.86-5.69,5.26-8.62,8.89-18.62,10.03-37.9,4.32-57.66-.45-1.55-.89-3.01-2.69-3.6-7.97-2.61-15.93-5.28-24.55-8.14,4.79,26.64,11.76,52.01,17.67,78.01Zm-129.58-89.36c-16.11,20.18-18.09,46.97-13.07,67.04.37,1.49,1.45,1.95,2.57,2.38,7.92,3.03,15.86,6,24.43,9.23-4.69-26.51-9.27-52.33-13.93-78.65Zm134,11.85c-9.85-22.5-31.36-37.5-52.79-42.55-1.35-.32-2.21-.34-3.31.63-6.21,5.5-12.5,10.9-19.23,16.73,25.09,8.87,49.66,17.35,75.33,25.19Zm-63.45-43.99c-23.75-1.7-43.48,5.27-60.4,20.26-1.89,1.68-5.04,3.05-4.6,6.05,1.25,8.49,2.96,16.9,4.59,25.89,20.22-17.47,39.95-34.51,60.41-52.19Z"/>
      <path class="cls-6" d="m349.8,310.62c-22.76-.05-40.09-17.41-40.03-40.13.05-21.98,17.93-39.84,39.92-39.86,21.75-.03,39.97,18.26,40.01,40.05.03,22.6-18.78,40.35-39.89,39.95Zm-5.03-47.75c6.34-.02,11.81-5.43,11.85-11.75.05-6.38-5.88-12.14-12.29-11.96-6.08.18-11.38,5.55-11.46,11.6-.08,7.02,4.93,12.12,11.9,12.1Zm19.82-1.55c-2.02.17-3.61,1.37-3.55,3.6.06,2.38,1.68,4.02,4.13,3.89,2.23-.11,3.36-1.71,3.34-4-.02-2.44-1.36-3.49-3.91-3.49Z"/>
      <path class="cls-6" d="m355.88,331.03c-6.16,5.77-11.87,11.03-17.46,16.41-1.88,1.81-3.67,1.28-5.81.75-24.32-5.96-42.12-20.12-53.54-42.35-.63-1.23-1.29-2.45-2.61-4.92,26.92,10.2,52.85,20.03,79.42,30.1Z"/>
      <path class="cls-6" d="m404.64,294.29c2.1,9.29,4.13,18.1,6.01,26.93.13.63-.65,1.57-1.2,2.2-15.33,17.58-40.04,28.79-63.88,26.02,19.74-18.44,39.15-36.56,59.06-55.16Z"/>
      <path class="cls-6" d="m416.25,313.87c-5.91-26-12.88-51.37-17.67-78.01,8.62,2.87,16.58,5.53,24.55,8.14,1.8.59,2.24,2.05,2.69,3.6,5.71,19.76,4.57,39.04-4.32,57.66-1.4,2.93-3.58,5.52-5.26,8.62Z"/>
      <path class="cls-6" d="m286.67,224.52c4.66,26.32,9.23,52.14,13.93,78.65-8.57-3.23-16.51-6.2-24.43-9.23-1.12-.43-2.2-.89-2.57-2.38-5.02-20.07-3.04-46.86,13.07-67.04Z"/>
      <path class="cls-6" d="m420.67,236.36c-25.67-7.84-50.24-16.32-75.33-25.19,6.73-5.83,13.02-11.23,19.23-16.73,1.1-.97,1.96-.95,3.31-.63,21.44,5.05,42.94,20.05,52.79,42.55Z"/>
      <path class="cls-6" d="m357.22,192.37c-20.46,17.68-40.19,34.73-60.41,52.19-1.63-8.98-3.34-17.4-4.59-25.89-.44-3,2.71-4.37,4.6-6.05,16.92-14.98,36.65-21.96,60.4-20.26Z"/>
      <path class="cls-4" d="m344.77,262.87c-6.97.02-11.98-5.08-11.9-12.1.07-6.05,5.37-11.43,11.46-11.6,6.41-.19,12.34,5.58,12.29,11.96-.05,6.32-5.51,11.73-11.85,11.75Z"/>
      <path class="cls-4" d="m364.59,261.32c2.56,0,3.89,1.06,3.91,3.49.02,2.28-1.11,3.89-3.34,4-2.45.12-4.07-1.51-4.13-3.89-.06-2.23,1.53-3.43,3.55-3.6Z"/>
    </g>
    <rect class="cls-8" x="214.76" y="154.82" width="364.81" height="230.08" rx="43.1" ry="43.1"/>
  </g>
</svg>