<svg width="150" height="40" viewBox="0 0 150 40" fill="none" xmlns="http://www.w3.org/2000/svg">
<g clip-path="url(#clip0_5_4)">
<path d="M0 20C0 8.95431 8.95431 0 20 0H130C141.046 0 150 8.95431 150 20C150 31.0457 141.046 40 130 40H20C8.9543 40 0 31.0457 0 20Z" fill="white"/>
<path fill-rule="evenodd" clip-rule="evenodd" d="M130 2H20C10.0589 2 2 10.0589 2 20C2 29.9411 10.0589 38 20 38H130C139.941 38 148 29.9411 148 20C148 10.0589 139.941 2 130 2ZM20 0C8.95431 0 0 8.95431 0 20C0 31.0457 8.9543 40 20 40H130C141.046 40 150 31.0457 150 20C150 8.95431 141.046 0 130 0H20Z" fill="#12141D"/>
<path d="M35.9499 10.7274C32.7098 8.04054 28.6938 7.76129 26.1525 8.13111C25.0705 8.30042 24.0139 8.60469 23.0075 9.03681C22.049 9.44361 19.1885 10.6595 17.4224 13.5222C15.208 17.1111 16.1688 20.8735 16.4473 21.8244C17.83 26.5469 21.9947 28.6103 22.7736 28.9779C27.5413 31.227 32.0343 29.6474 32.7679 29.3764C34.4336 28.7284 35.9315 27.7126 37.1499 26.405C37.7499 25.7559 39.119 24.1249 39.716 21.8108C40.6776 18.0922 39.3945 13.5849 35.9499 10.7274Z" fill="#88CCFF"/>
<path d="M30.8485 25.1155C30.6826 25.0937 30.5182 25.0612 30.3564 25.0181C30.247 24.9895 30.1391 24.9555 30.0327 24.9178L29.9459 24.8853C29.847 24.8476 30.0213 24.9193 29.9217 24.8747C29.85 24.8415 29.7783 24.8106 29.7074 24.7751C29.3085 24.5772 28.9553 24.2983 28.6703 23.9562L28.6205 23.8966C28.6877 23.9758 28.6266 23.9041 28.6145 23.8883C28.5798 23.843 28.5458 23.7962 28.5126 23.7494C28.4353 23.6373 28.3662 23.5197 28.3058 23.3977C28.3013 23.3894 28.2552 23.2898 28.2892 23.3668C28.2756 23.3358 28.2628 23.3041 28.2507 23.2724C28.2252 23.2074 28.203 23.1412 28.1843 23.0739C28.1647 23.0067 28.1488 22.9388 28.136 22.8709C28.136 22.8528 28.1201 22.7547 28.1322 22.855C28.1277 22.8165 28.1232 22.7796 28.1201 22.7388C28.1111 22.622 28.1111 22.5047 28.1201 22.3879C28.1201 22.3584 28.1262 22.329 28.1284 22.2995C28.1367 22.1999 28.1126 22.3811 28.1284 22.2822C28.1405 22.2135 28.1533 22.1448 28.17 22.0769C28.1993 21.9579 28.2363 21.8409 28.2809 21.7267C28.2922 21.6973 28.3043 21.6686 28.3164 21.6399C28.2817 21.7237 28.3224 21.6271 28.3284 21.615C28.3601 21.5478 28.3949 21.4814 28.4311 21.4165C28.5065 21.2828 28.5901 21.154 28.6817 21.0308C28.702 21.0037 28.7232 20.9772 28.7436 20.9508C28.7715 20.9153 28.7639 20.9244 28.7436 20.9508C28.7579 20.9327 28.773 20.9154 28.7881 20.898C28.8402 20.8369 28.8953 20.7772 28.9511 20.7191C29.067 20.5999 29.1894 20.4872 29.3179 20.3817L29.4032 20.3131C29.4138 20.3048 29.5277 20.2202 29.4711 20.261C29.5421 20.2104 29.6145 20.1614 29.6877 20.11L29.2107 19.5198C29.1051 19.6205 28.9964 19.7181 28.8847 19.8127C28.8087 19.8761 28.7317 19.938 28.6537 19.9983L28.5934 20.0444C28.5481 20.0783 28.539 20.0814 28.5934 20.0444C28.5405 20.0798 28.4907 20.1198 28.4424 20.1546C28.2208 20.3091 27.9907 20.4512 27.7533 20.5802C27.62 20.6537 27.4836 20.7229 27.3443 20.7878C27.2763 20.8195 27.2077 20.8504 27.1382 20.8806L27.0318 20.9259L27.0016 20.938L26.9548 20.9561C26.6176 21.0861 26.2712 21.191 25.9186 21.2701C25.7336 21.3116 25.5465 21.3456 25.3585 21.3727C25.2974 21.3818 25.2038 21.3931 25.1004 21.4029C24.997 21.4127 24.8898 21.421 24.7842 21.4263C24.393 21.4472 24.0008 21.4371 23.6113 21.3961L23.4853 21.3818C23.5698 21.3916 23.4309 21.3742 23.4098 21.372C23.3253 21.3591 23.24 21.3456 23.1554 21.3305C22.9969 21.3018 22.8384 21.2686 22.6822 21.2293C22.3876 21.1569 22.0975 21.0672 21.8135 20.9606L21.729 20.9282C21.6293 20.8897 21.7909 20.9538 21.7139 20.9221C21.6626 20.901 21.6112 20.8799 21.5629 20.8572C21.4807 20.8218 21.3991 20.7818 21.3191 20.7455V21.3946C22.1368 21.0424 22.9579 20.6985 23.7826 20.3629C24.203 20.1915 24.5653 20.0459 25.0023 19.8738C25.4393 19.7017 25.8672 19.5334 26.302 19.3666C28.0731 18.6858 29.8593 18.041 31.6606 17.4322C32.6358 17.1021 33.6152 16.7831 34.5989 16.4752L34.1 16.1122C34.0497 17.0853 33.9586 18.0549 33.8268 19.0209C33.8268 19.0451 33.82 19.0692 33.8169 19.0926C33.826 19.0255 33.8169 19.0874 33.8169 19.0994C33.8086 19.1523 33.8011 19.2051 33.7936 19.2579C33.7807 19.3447 33.7679 19.4315 33.7543 19.5183C33.7422 19.5938 33.7302 19.6693 33.7173 19.7447C33.6846 19.9354 33.6494 20.1259 33.6117 20.3161C33.3218 21.7984 32.9996 23.2762 32.6712 24.7517C32.5648 25.2317 32.4161 25.7216 32.3693 26.2121C32.3605 26.4472 32.3806 26.6824 32.429 26.9125C32.6041 28.0205 32.8758 29.1171 33.1415 30.2078C33.2013 30.4523 33.2615 30.6968 33.3218 30.9414C33.3671 31.1217 33.6139 31.2795 33.8064 31.204C34.8897 30.7809 35.9099 30.211 36.8382 29.5104C37.7745 28.8006 38.6003 27.9559 39.2888 27.0039C40.0872 25.918 40.6759 24.6927 41.0248 23.3909C41.3326 22.1928 41.4254 20.9496 41.2987 19.7191C41.1659 18.4195 40.8178 17.151 40.2685 15.9657C39.0751 13.3928 36.9833 11.3442 34.386 10.2048C33.1358 9.66108 31.8097 9.31187 30.4538 9.16927C29.3239 9.04661 28.1831 9.06435 27.0575 9.2221C25.9028 9.39546 24.776 9.72055 23.7064 10.1889C22.9703 10.4963 22.2601 10.8623 21.5825 11.2833C20.4985 11.9581 19.5335 12.8076 18.7266 13.7974C17.7708 14.9831 17.1062 16.3764 16.7862 17.8654C16.3805 19.8392 16.5007 21.885 17.1348 23.7977C17.5061 24.8789 18.0508 25.8924 18.7477 26.7986C19.3888 27.6292 20.1315 28.3762 20.9584 29.0221C21.7033 29.6036 22.4984 30.1179 23.3343 30.5587C24.0158 30.9166 24.7191 31.2312 25.44 31.5006C25.868 31.6614 26.3027 31.8078 26.745 31.9286C26.8205 31.9505 26.9035 31.9716 26.9843 31.9897C27.1835 32.0357 27.4205 31.9301 27.468 31.7278C27.4808 31.6794 27.4838 31.6289 27.4769 31.5793C27.4699 31.5297 27.4532 31.482 27.4276 31.4389C27.402 31.3959 27.3682 31.3583 27.3279 31.3285C27.2877 31.2986 27.2419 31.2771 27.1933 31.2652C26.9329 31.2055 26.6763 31.127 26.4227 31.0455C26.1691 30.964 25.9201 30.8772 25.6718 30.7844L25.4506 30.6998L25.3404 30.6561L25.2921 30.6372C25.4189 30.6855 25.3344 30.6538 25.3049 30.6417C25.1399 30.5748 24.9759 30.5054 24.8129 30.4334C24.0608 30.1018 23.3343 29.715 22.6392 29.2764C22.4414 29.1521 22.2475 29.0233 22.0573 28.89L21.9267 28.7979C21.8965 28.776 21.7871 28.7224 21.7758 28.6885C21.7758 28.6922 21.8512 28.7451 21.7954 28.7028L21.7652 28.6809L21.6958 28.6281C21.6452 28.5903 21.5954 28.5526 21.5448 28.5134C21.1578 28.2127 20.7882 27.8904 20.4376 27.548C20.257 27.3704 20.0809 27.188 19.9093 27.0008C19.8217 26.9032 19.7362 26.8046 19.6527 26.705L19.5915 26.6295L19.5659 26.5978C19.5319 26.5578 19.6089 26.6522 19.5757 26.6106C19.5334 26.5571 19.4904 26.5035 19.4489 26.4499C19.1225 26.0293 18.8286 25.5844 18.5696 25.1193C18.4353 24.8778 18.313 24.631 18.1975 24.3811C18.1915 24.3675 18.1862 24.354 18.1794 24.3404C18.2141 24.4159 18.1907 24.3653 18.1839 24.3494L18.1424 24.2543C18.1137 24.1857 18.0851 24.117 18.0579 24.0475C18.0076 23.9172 17.9573 23.7856 17.9069 23.6528C17.796 23.3351 17.7009 23.012 17.6224 22.686C17.5809 22.5131 17.5469 22.3388 17.5115 22.1645C17.4926 22.0641 17.4745 21.9629 17.4586 21.8626C17.4496 21.8082 17.4413 21.7546 17.4337 21.7003C17.432 21.6843 17.4295 21.6684 17.4262 21.6527C17.4262 21.6527 17.4375 21.735 17.4322 21.692C17.4269 21.649 17.4232 21.6271 17.4194 21.5939C17.3506 21.0611 17.3199 20.5241 17.3273 19.987C17.3318 19.674 17.3499 19.3611 17.3816 19.0481C17.3892 18.9726 17.3975 18.9024 17.4066 18.8292L17.4224 18.71C17.4299 18.6504 17.4133 18.7673 17.4224 18.71C17.4224 18.6866 17.4292 18.6639 17.433 18.6413C17.4586 18.4722 17.4888 18.3039 17.5235 18.1364C17.5945 17.7918 17.6845 17.4514 17.793 17.1167C17.8503 16.9394 17.913 16.7627 17.9809 16.5884C18.0126 16.5084 18.0451 16.4292 18.0783 16.3499C18.1168 16.2586 18.1266 16.2367 18.1771 16.128C18.4911 15.4573 18.8828 14.8258 19.344 14.2464C19.3591 14.2276 19.3734 14.2087 19.3885 14.1906L19.3825 14.1981L19.4617 14.103C19.5176 14.0366 19.5749 13.9702 19.633 13.9053C19.7427 13.7815 19.8554 13.6605 19.9712 13.5423C20.1885 13.3158 20.4172 13.106 20.6504 12.9022C20.7657 12.8041 20.8829 12.7078 21.0022 12.6132C21.0542 12.5717 21.1063 12.5317 21.1591 12.4909L21.2437 12.4275L21.292 12.3913C21.2678 12.4094 21.249 12.423 21.2844 12.3973C21.5041 12.2381 21.7282 12.0848 21.9577 11.9399C22.3528 11.6909 22.7607 11.4626 23.1796 11.2561C24.0753 10.8061 25.0165 10.4531 25.9872 10.2033C26.3851 10.0999 26.7882 10.0181 27.1948 9.95798C27.2477 9.95043 27.3012 9.94666 27.3533 9.93609C27.2378 9.95873 27.3314 9.93609 27.3601 9.93609L27.4612 9.92477C27.5865 9.91043 27.7118 9.89835 27.8386 9.88779C28.0998 9.8659 28.3617 9.85231 28.6228 9.84628C29.1998 9.8329 29.7771 9.85584 30.3512 9.91496C30.4198 9.92175 30.4885 9.9293 30.5565 9.9376L30.6674 9.95043C30.5791 9.93986 30.6923 9.95043 30.7217 9.95873C30.8777 9.97986 31.0332 10.005 31.1882 10.0342C31.5016 10.0891 31.8123 10.155 32.1203 10.2319C32.438 10.312 32.7535 10.4033 33.0637 10.5074C33.2252 10.5618 33.386 10.6199 33.5445 10.6803L33.6607 10.7256L33.7105 10.7452C33.6954 10.7391 33.6449 10.7188 33.7158 10.7452C33.7868 10.7716 33.8705 10.8093 33.9475 10.8425C34.6017 11.1273 35.2281 11.4721 35.8185 11.8728C35.888 11.9196 35.9566 11.9679 36.0246 12.0162L36.1348 12.0954L36.1491 12.106L36.2117 12.1535C36.3627 12.2675 36.5091 12.3845 36.6525 12.506C36.9096 12.7208 37.1559 12.9473 37.3914 13.1853C37.6239 13.4185 37.8443 13.6623 38.0563 13.9136L38.1318 14.0064C38.1597 14.0404 38.1318 14.0019 38.1243 13.9966C38.1386 14.0147 38.1522 14.0328 38.1665 14.0502C38.2201 14.1174 38.2722 14.1845 38.3235 14.2525C38.4231 14.3838 38.519 14.5166 38.6126 14.6517C38.9773 15.1741 39.2974 15.7263 39.5696 16.3024L39.6179 16.4073C39.6255 16.4246 39.6692 16.525 39.6383 16.4533C39.6692 16.5242 39.6994 16.5944 39.7289 16.6654C39.7897 16.8128 39.8474 16.9607 39.9017 17.1092C40.0079 17.4005 40.1022 17.6954 40.1847 17.9937C40.2672 18.2921 40.3362 18.5905 40.3915 18.8889C40.4202 19.0398 40.4444 19.1908 40.467 19.347C40.4549 19.2715 40.467 19.3613 40.4723 19.3893C40.4776 19.4172 40.4821 19.4647 40.4866 19.5002C40.4949 19.5757 40.5032 19.6512 40.5108 19.7213C40.5716 20.3212 40.5812 20.9252 40.5395 21.5267C40.5289 21.6776 40.5148 21.8271 40.4972 21.975C40.4896 22.0414 40.4806 22.1078 40.4723 22.1743C40.464 22.2407 40.4821 22.1101 40.4723 22.166L40.4655 22.212C40.4594 22.2528 40.4534 22.2935 40.4466 22.3335C40.3988 22.6223 40.3382 22.9089 40.2647 23.1932C40.1722 23.5475 40.0596 23.8962 39.9274 24.2377C39.8964 24.3185 39.8647 24.3985 39.8315 24.4785L39.7817 24.5955L39.7598 24.6453L39.7485 24.671C39.679 24.8219 39.6051 24.9781 39.5281 25.1291C39.2601 25.6515 38.952 26.1524 38.6066 26.6273C38.5326 26.7279 38.4571 26.8285 38.3801 26.9291L38.2828 27.0522C38.2737 27.0642 38.2624 27.0763 38.2541 27.0884L38.279 27.0575L38.2231 27.1261C38.1079 27.266 37.9889 27.4031 37.8661 27.5375C37.3839 28.0672 36.8533 28.5508 36.2812 28.982C36.2668 28.9926 36.177 29.0575 36.2284 29.0221L36.1408 29.0855C36.0653 29.1375 35.9959 29.1881 35.9227 29.2364C35.7868 29.33 35.6495 29.4198 35.5098 29.5074C35.2583 29.6638 35.0026 29.8108 34.743 29.9481C34.5262 30.0618 34.3065 30.1693 34.0841 30.2704C33.9835 30.3152 33.8846 30.3582 33.7875 30.3995L33.6607 30.4523C33.5769 30.4863 33.7309 30.4244 33.6713 30.4478L33.5996 30.4764L34.0841 30.7383C33.7679 29.4704 33.4479 28.1971 33.2245 26.9103C33.2124 26.8431 33.2011 26.7767 33.1905 26.7095C33.1867 26.6816 33.1822 26.6537 33.1777 26.6257C33.1777 26.6137 33.1777 26.6008 33.1724 26.5888C33.1618 26.5171 33.1875 26.699 33.1799 26.6423C33.1724 26.5857 33.1626 26.514 33.1573 26.4491C33.1531 26.3903 33.1531 26.3313 33.1573 26.2725C33.1573 26.2114 33.189 26.0461 33.1573 26.2272C33.1694 26.1616 33.1799 26.0959 33.1935 26.031C33.2494 25.7608 33.3128 25.4921 33.3724 25.2234C33.6974 23.7683 34.0092 22.3091 34.3075 20.8459C34.5693 19.5362 34.7483 18.2112 34.8434 16.879C34.8625 16.6224 34.8786 16.3658 34.8917 16.1091C34.9038 15.8729 34.6291 15.6729 34.3928 15.7469C32.6081 16.3074 30.8357 16.9029 29.0756 17.5333C27.2783 18.1774 25.4964 18.8567 23.7298 19.5712C22.7904 19.9505 21.8555 20.3405 20.9252 20.741C20.6587 20.855 20.6761 21.2693 20.9252 21.3901C22.0322 21.9245 23.247 22.198 24.4762 22.1894C25.9688 22.1733 27.426 21.7324 28.6771 20.9184C29.069 20.6636 29.4368 20.3735 29.776 20.0519C29.8423 19.9887 29.8822 19.9028 29.8878 19.8114C29.8934 19.72 29.8643 19.6299 29.8062 19.5591C29.7464 19.4858 29.6628 19.436 29.5699 19.4182C29.4771 19.4004 29.3809 19.4158 29.2983 19.4617C28.2243 20.1515 27.3428 21.258 27.3261 22.5343C27.3111 23.6626 28.0809 24.68 29.0439 25.2747C29.5306 25.5722 30.0741 25.7648 30.6395 25.8401C30.8425 25.8665 31.0719 25.7933 31.124 25.5774C31.1663 25.4008 31.0667 25.1442 30.8485 25.1155Z" fill="#010101"/>
<path d="M52.4782 24V19.347H50.6332V17.7H56.4472V19.347H54.6022V24H52.4782ZM56.8479 24V19.077H58.7829V20.562L58.4679 20.139C58.6179 19.755 58.8579 19.467 59.1879 19.275C59.5179 19.083 59.9139 18.987 60.3759 18.987V20.787C60.2859 20.775 60.2049 20.766 60.1329 20.76C60.0669 20.754 59.9979 20.751 59.9259 20.751C59.6199 20.751 59.3679 20.832 59.1699 20.994C58.9779 21.15 58.8819 21.423 58.8819 21.813V24H56.8479ZM60.9524 24V19.077H62.9864V24H60.9524ZM61.9694 18.681C61.5974 18.681 61.3004 18.582 61.0784 18.384C60.8564 18.186 60.7454 17.94 60.7454 17.646C60.7454 17.352 60.8564 17.106 61.0784 16.908C61.3004 16.71 61.5974 16.611 61.9694 16.611C62.3414 16.611 62.6384 16.704 62.8604 16.89C63.0824 17.076 63.1934 17.316 63.1934 17.61C63.1934 17.922 63.0824 18.18 62.8604 18.384C62.6384 18.582 62.3414 18.681 61.9694 18.681ZM70.404 18.987C70.776 18.987 71.109 19.065 71.403 19.221C71.703 19.371 71.937 19.608 72.105 19.932C72.279 20.256 72.366 20.676 72.366 21.192V24H70.332V21.543C70.332 21.237 70.281 21.021 70.179 20.895C70.077 20.763 69.945 20.697 69.783 20.697C69.663 20.697 69.555 20.727 69.459 20.787C69.363 20.847 69.285 20.943 69.225 21.075C69.171 21.201 69.144 21.375 69.144 21.597V24H67.11V21.543C67.11 21.237 67.062 21.021 66.966 20.895C66.87 20.763 66.735 20.697 66.561 20.697C66.441 20.697 66.333 20.727 66.237 20.787C66.141 20.847 66.063 20.943 66.003 21.075C65.949 21.201 65.922 21.375 65.922 21.597V24H63.888V19.077H65.823V20.49L65.427 20.094C65.613 19.722 65.862 19.446 66.174 19.266C66.486 19.08 66.834 18.987 67.218 18.987C67.65 18.987 68.031 19.101 68.361 19.329C68.697 19.551 68.922 19.905 69.036 20.391L68.415 20.292C68.595 19.884 68.856 19.566 69.198 19.338C69.546 19.104 69.948 18.987 70.404 18.987ZM73.2483 24V19.077H75.2823V24H73.2483ZM74.2653 18.681C73.8933 18.681 73.5963 18.582 73.3743 18.384C73.1523 18.186 73.0413 17.94 73.0413 17.646C73.0413 17.352 73.1523 17.106 73.3743 16.908C73.5963 16.71 73.8933 16.611 74.2653 16.611C74.6373 16.611 74.9343 16.704 75.1563 16.89C75.3783 17.076 75.4893 17.316 75.4893 17.61C75.4893 17.922 75.3783 18.18 75.1563 18.384C74.9343 18.582 74.6373 18.681 74.2653 18.681ZM78.5599 24.09C77.8819 24.09 77.3539 23.928 76.9759 23.604C76.5979 23.274 76.4089 22.77 76.4089 22.092V17.97H78.4429V22.074C78.4429 22.224 78.4819 22.341 78.5599 22.425C78.6439 22.509 78.7459 22.551 78.8659 22.551C79.0399 22.551 79.1929 22.506 79.3249 22.416L79.8109 23.829C79.6549 23.919 79.4659 23.985 79.2439 24.027C79.0279 24.069 78.7999 24.09 78.5599 24.09ZM75.7339 20.832V19.347H79.4509V20.832H75.7339ZM82.9097 24.09C82.3097 24.09 81.7847 23.979 81.3347 23.757C80.8907 23.535 80.5457 23.232 80.2997 22.848C80.0537 22.458 79.9307 22.02 79.9307 21.534C79.9307 21.036 80.0507 20.595 80.2907 20.211C80.5367 19.827 80.8697 19.527 81.2897 19.311C81.7157 19.095 82.1927 18.987 82.7207 18.987C83.2067 18.987 83.6537 19.083 84.0617 19.275C84.4757 19.467 84.8057 19.752 85.0517 20.13C85.3037 20.508 85.4297 20.976 85.4297 21.534C85.4297 21.606 85.4267 21.687 85.4207 21.777C85.4147 21.861 85.4087 21.939 85.4027 22.011H81.6137V21.03H84.3227L83.5577 21.291C83.5577 21.099 83.5217 20.937 83.4497 20.805C83.3837 20.667 83.2907 20.562 83.1707 20.49C83.0507 20.412 82.9067 20.373 82.7387 20.373C82.5707 20.373 82.4237 20.412 82.2977 20.49C82.1777 20.562 82.0847 20.667 82.0187 20.805C81.9527 20.937 81.9197 21.099 81.9197 21.291V21.597C81.9197 21.807 81.9617 21.987 82.0457 22.137C82.1297 22.287 82.2497 22.401 82.4057 22.479C82.5617 22.551 82.7507 22.587 82.9727 22.587C83.2007 22.587 83.3867 22.557 83.5307 22.497C83.6807 22.437 83.8367 22.347 83.9987 22.227L85.0607 23.298C84.8207 23.556 84.5237 23.754 84.1697 23.892C83.8217 24.024 83.4017 24.09 82.9097 24.09ZM95.2858 18.987C95.6578 18.987 95.9908 19.065 96.2848 19.221C96.5848 19.371 96.8188 19.608 96.9868 19.932C97.1608 20.256 97.2478 20.676 97.2478 21.192V24H95.2138V21.543C95.2138 21.237 95.1628 21.021 95.0608 20.895C94.9588 20.763 94.8268 20.697 94.6648 20.697C94.5448 20.697 94.4368 20.727 94.3408 20.787C94.2448 20.847 94.1668 20.943 94.1068 21.075C94.0528 21.201 94.0258 21.375 94.0258 21.597V24H91.9918V21.543C91.9918 21.237 91.9438 21.021 91.8478 20.895C91.7518 20.763 91.6168 20.697 91.4428 20.697C91.3228 20.697 91.2148 20.727 91.1188 20.787C91.0228 20.847 90.9448 20.943 90.8848 21.075C90.8308 21.201 90.8038 21.375 90.8038 21.597V24H88.7698V19.077H90.7048V20.49L90.3088 20.094C90.4948 19.722 90.7438 19.446 91.0558 19.266C91.3678 19.08 91.7158 18.987 92.0998 18.987C92.5318 18.987 92.9128 19.101 93.2428 19.329C93.5788 19.551 93.8038 19.905 93.9178 20.391L93.2968 20.292C93.4768 19.884 93.7378 19.566 94.0798 19.338C94.4278 19.104 94.8298 18.987 95.2858 18.987ZM100.819 24.09C100.261 24.09 99.7661 23.982 99.3341 23.766C98.9081 23.544 98.5721 23.241 98.3261 22.857C98.0801 22.473 97.9571 22.032 97.9571 21.534C97.9571 21.036 98.0801 20.595 98.3261 20.211C98.5721 19.827 98.9081 19.527 99.3341 19.311C99.7661 19.095 100.261 18.987 100.819 18.987C101.377 18.987 101.872 19.095 102.304 19.311C102.736 19.527 103.072 19.827 103.312 20.211C103.558 20.595 103.681 21.036 103.681 21.534C103.681 22.032 103.558 22.473 103.312 22.857C103.072 23.241 102.736 23.544 102.304 23.766C101.872 23.982 101.377 24.09 100.819 24.09ZM100.819 22.506C100.969 22.506 101.104 22.47 101.224 22.398C101.344 22.326 101.44 22.218 101.512 22.074C101.584 21.924 101.62 21.744 101.62 21.534C101.62 21.318 101.584 21.141 101.512 21.003C101.44 20.859 101.344 20.751 101.224 20.679C101.104 20.607 100.969 20.571 100.819 20.571C100.669 20.571 100.534 20.607 100.414 20.679C100.294 20.751 100.198 20.859 100.126 21.003C100.054 21.141 100.018 21.318 100.018 21.534C100.018 21.744 100.054 21.924 100.126 22.074C100.198 22.218 100.294 22.326 100.414 22.398C100.534 22.47 100.669 22.506 100.819 22.506ZM110.834 18.987C111.206 18.987 111.539 19.065 111.833 19.221C112.133 19.371 112.367 19.608 112.535 19.932C112.709 20.256 112.796 20.676 112.796 21.192V24H110.762V21.543C110.762 21.237 110.711 21.021 110.609 20.895C110.507 20.763 110.375 20.697 110.213 20.697C110.093 20.697 109.985 20.727 109.889 20.787C109.793 20.847 109.715 20.943 109.655 21.075C109.601 21.201 109.574 21.375 109.574 21.597V24H107.54V21.543C107.54 21.237 107.492 21.021 107.396 20.895C107.3 20.763 107.165 20.697 106.991 20.697C106.871 20.697 106.763 20.727 106.667 20.787C106.571 20.847 106.493 20.943 106.433 21.075C106.379 21.201 106.352 21.375 106.352 21.597V24H104.318V19.077H106.253V20.49L105.857 20.094C106.043 19.722 106.292 19.446 106.604 19.266C106.916 19.08 107.264 18.987 107.648 18.987C108.08 18.987 108.461 19.101 108.791 19.329C109.127 19.551 109.352 19.905 109.466 20.391L108.845 20.292C109.025 19.884 109.286 19.566 109.628 19.338C109.976 19.104 110.378 18.987 110.834 18.987ZM116.484 24.09C115.884 24.09 115.359 23.979 114.909 23.757C114.465 23.535 114.12 23.232 113.874 22.848C113.628 22.458 113.505 22.02 113.505 21.534C113.505 21.036 113.625 20.595 113.865 20.211C114.111 19.827 114.444 19.527 114.864 19.311C115.29 19.095 115.767 18.987 116.295 18.987C116.781 18.987 117.228 19.083 117.636 19.275C118.05 19.467 118.38 19.752 118.626 20.13C118.878 20.508 119.004 20.976 119.004 21.534C119.004 21.606 119.001 21.687 118.995 21.777C118.989 21.861 118.983 21.939 118.977 22.011H115.188V21.03H117.897L117.132 21.291C117.132 21.099 117.096 20.937 117.024 20.805C116.958 20.667 116.865 20.562 116.745 20.49C116.625 20.412 116.481 20.373 116.313 20.373C116.145 20.373 115.998 20.412 115.872 20.49C115.752 20.562 115.659 20.667 115.593 20.805C115.527 20.937 115.494 21.099 115.494 21.291V21.597C115.494 21.807 115.536 21.987 115.62 22.137C115.704 22.287 115.824 22.401 115.98 22.479C116.136 22.551 116.325 22.587 116.547 22.587C116.775 22.587 116.961 22.557 117.105 22.497C117.255 22.437 117.411 22.347 117.573 22.227L118.635 23.298C118.395 23.556 118.098 23.754 117.744 23.892C117.396 24.024 116.976 24.09 116.484 24.09ZM123.066 18.987C123.444 18.987 123.786 19.065 124.092 19.221C124.398 19.371 124.638 19.608 124.812 19.932C124.992 20.256 125.082 20.676 125.082 21.192V24H123.048V21.543C123.048 21.237 122.994 21.021 122.886 20.895C122.778 20.763 122.631 20.697 122.445 20.697C122.307 20.697 122.178 20.73 122.058 20.796C121.944 20.856 121.851 20.958 121.779 21.102C121.713 21.246 121.68 21.441 121.68 21.687V24H119.646V19.077H121.581V20.517L121.194 20.103C121.386 19.731 121.644 19.452 121.968 19.266C122.298 19.08 122.664 18.987 123.066 18.987ZM128.341 24.09C127.663 24.09 127.135 23.928 126.757 23.604C126.379 23.274 126.19 22.77 126.19 22.092V17.97H128.224V22.074C128.224 22.224 128.263 22.341 128.341 22.425C128.425 22.509 128.527 22.551 128.647 22.551C128.821 22.551 128.974 22.506 129.106 22.416L129.592 23.829C129.436 23.919 129.247 23.985 129.025 24.027C128.809 24.069 128.581 24.09 128.341 24.09ZM125.515 20.832V19.347H129.232V20.832H125.515ZM132.691 24.09C132.091 24.09 131.566 23.979 131.116 23.757C130.672 23.535 130.327 23.232 130.081 22.848C129.835 22.458 129.712 22.02 129.712 21.534C129.712 21.036 129.832 20.595 130.072 20.211C130.318 19.827 130.651 19.527 131.071 19.311C131.497 19.095 131.974 18.987 132.502 18.987C132.988 18.987 133.435 19.083 133.843 19.275C134.257 19.467 134.587 19.752 134.833 20.13C135.085 20.508 135.211 20.976 135.211 21.534C135.211 21.606 135.208 21.687 135.202 21.777C135.196 21.861 135.19 21.939 135.184 22.011H131.395V21.03H134.104L133.339 21.291C133.339 21.099 133.303 20.937 133.231 20.805C133.165 20.667 133.072 20.562 132.952 20.49C132.832 20.412 132.688 20.373 132.52 20.373C132.352 20.373 132.205 20.412 132.079 20.49C131.959 20.562 131.866 20.667 131.8 20.805C131.734 20.937 131.701 21.099 131.701 21.291V21.597C131.701 21.807 131.743 21.987 131.827 22.137C131.911 22.287 132.031 22.401 132.187 22.479C132.343 22.551 132.532 22.587 132.754 22.587C132.982 22.587 133.168 22.557 133.312 22.497C133.462 22.437 133.618 22.347 133.78 22.227L134.842 23.298C134.602 23.556 134.305 23.754 133.951 23.892C133.603 24.024 133.183 24.09 132.691 24.09Z" fill="black"/>
</g>
<defs>
<clipPath id="clip0_5_4">
<rect width="150" height="40" fill="white"/>
</clipPath>
</defs>
</svg>
