<svg width="392" height="202" viewBox="0 0 392 202" fill="none" xmlns="http://www.w3.org/2000/svg">
<g clip-path="url(#clip0_2692_7134)">
<path fill-rule="evenodd" clip-rule="evenodd" d="M258.686 154.285C239.959 164.033 217.272 153.708 196.516 157.565C161.778 164.02 126.958 201.341 95.8763 184.538C67.5159 169.206 70.5928 123.764 74.8911 91.8124C78.5757 64.423 101.971 45.1905 117.681 22.4539C127.45 8.31563 143.589 -0.693574 149.862 -16.6925C160.538 -43.9208 146.857 -79.4609 166.232 -101.369C185.315 -122.948 219.73 -135.288 247.269 -126.838C275.277 -118.244 282.608 -81.9669 301.75 -59.7875C317.493 -41.5467 348.25 -31.7325 350.085 -7.70764C352.039 17.8813 321.764 33.7544 310.662 56.8922C303.119 72.6145 303.721 90.6486 295.51 106.033C285.819 124.192 276.944 144.781 258.686 154.285Z" fill="#12141D"/>
<mask id="mask0_2692_7134" style="mask-type:alpha" maskUnits="userSpaceOnUse" x="72" y="-130" width="279" height="319">
<path fill-rule="evenodd" clip-rule="evenodd" d="M258.686 154.285C239.96 164.033 217.273 153.708 196.516 157.565C161.778 164.02 126.958 201.342 95.8767 184.539C67.5162 169.206 70.5931 123.764 74.8915 91.8128C78.5761 64.4234 101.971 45.1909 117.681 22.4542C127.45 8.316 143.589 -0.693208 149.863 -16.6921C160.539 -43.9204 146.858 -79.4606 166.232 -101.369C185.315 -122.947 219.731 -135.288 247.269 -126.838C275.278 -118.244 282.608 -81.9665 301.75 -59.7872C317.493 -41.5463 348.25 -31.7322 350.085 -7.70728C352.04 17.8816 321.765 33.7547 310.663 56.8926C303.119 72.6149 303.721 90.649 295.51 106.034C285.819 124.193 276.944 144.781 258.686 154.285Z" fill="#C4C4C4"/>
</mask>
<g mask="url(#mask0_2692_7134)">
<path fill-rule="evenodd" clip-rule="evenodd" d="M233.907 142.687C215.177 152.435 192.489 142.115 171.731 145.974C136.989 152.432 102.161 189.75 71.0784 172.954C42.7172 157.629 45.8 112.195 50.1026 80.2494C53.7909 52.8651 77.1908 33.6336 92.9048 10.8996C102.676 -3.23697 118.818 -12.2463 125.094 -28.2428C135.774 -55.4669 122.096 -90.9983 141.475 -112.905C160.562 -134.481 194.983 -146.823 222.523 -138.379C250.533 -129.79 257.86 -93.5202 277.001 -71.3477C292.743 -53.1124 323.501 -43.304 325.334 -19.2841C327.285 6.29941 297.006 22.173 285.9 45.3076C278.353 61.0276 278.953 79.058 270.74 94.4406C261.046 112.597 252.167 133.183 233.907 142.687Z" stroke="#F1DFD5" stroke-width="4.30886"/>
<path fill-rule="evenodd" clip-rule="evenodd" d="M198.035 109.437C181.73 117.923 161.98 108.94 143.909 112.299C113.665 117.921 83.3458 150.407 56.2885 135.787C31.5997 122.446 34.284 82.8976 38.0301 55.0892C41.2413 31.2516 61.6117 14.5106 75.2915 -5.27924C83.7979 -17.585 97.85 -25.4278 103.313 -39.3526C112.611 -63.0508 100.705 -93.98 117.575 -113.05C134.191 -131.832 164.155 -142.576 188.129 -135.225C212.512 -127.749 218.89 -96.1776 235.553 -76.8771C249.256 -61.0039 276.032 -52.4663 277.626 -31.5575C279.325 -9.28753 252.966 4.53067 243.297 24.6691C236.728 38.3532 237.25 54.0484 230.1 67.4387C221.66 83.244 213.931 101.163 198.035 109.437Z" stroke="#F1DFD5" stroke-width="4.30886"/>
<path fill-rule="evenodd" clip-rule="evenodd" d="M157.502 84.7147C143.018 92.2592 125.46 84.2473 109.402 87.2259C82.5284 92.2108 55.6058 121.113 31.5499 108.078C9.59982 96.1839 11.9584 60.9736 15.2685 36.2172C18.106 14.9957 36.1978 0.104363 48.3415 -17.506C55.8928 -28.4566 68.3755 -35.4298 73.2213 -47.8239C81.4683 -68.9171 70.8659 -96.4629 85.8455 -113.43C100.599 -130.141 127.221 -139.687 148.532 -133.126C170.206 -126.453 175.896 -98.3387 190.717 -81.1432C202.906 -67.0012 226.707 -59.3816 228.139 -40.7644C229.663 -20.9354 206.247 -8.65043 197.669 9.27306C191.84 21.4522 192.314 35.4266 185.969 47.3437C178.48 61.4101 171.623 77.3592 157.502 84.7147Z" stroke="#F1DFD5" stroke-width="4.30886"/>
</g>
</g>
<defs>
<clipPath id="clip0_2692_7134">
<rect width="392" height="202" fill="white"/>
</clipPath>
</defs>
</svg>
